<?xml version="1.0" standalone="no"?>
<!DOCTYPE svg PUBLIC "-//W3C//DTD SVG 20010904//EN"
 "http://www.w3.org/TR/2001/REC-SVG-20010904/DTD/svg10.dtd">
<svg version="1.0" xmlns="http://www.w3.org/2000/svg"
 width="225.000000pt" height="225.000000pt" viewBox="0 0 225.000000 225.000000"
 preserveAspectRatio="xMidYMid meet">
<metadata>
Created by potrace 1.14, written by Peter Selinger 2001-2017
</metadata>
<g transform="translate(0.000000,225.000000) scale(0.100000,-0.100000)"
fill="#000000" stroke="none">
<path d="M249 1981 c-44 -14 -79 -42 -104 -86 l-25 -42 0 -728 0 -728 25 -43
c14 -23 42 -53 62 -66 l38 -23 880 0 880 0 38 23 c20 13 48 43 62 66 l25 43 0
728 0 728 -25 43 c-14 23 -42 53 -62 66 l-38 23 -865 2 c-476 1 -877 -2 -891
-6z m1536 -1621 l90 -90 -185 0 -185 0 -90 90 -90 90 185 0 185 0 90 -90z"/>
</g>
</svg>
